<?xml version="1.0" encoding="UTF-8"?>
<!DOCTYPE svg PUBLIC "-//W3C//DTD SVG 1.1//EN" "http://www.w3.org/Graphics/SVG/1.1/DTD/svg11.dtd">
<svg xmlns="http://www.w3.org/2000/svg" version="1.1" width="300" height="130" style="shape-rendering:geometricPrecision; text-rendering:geometricPrecision; image-rendering:optimizeQuality; fill-rule:evenodd; clip-rule:evenodd" xmlns:xlink="http://www.w3.org/1999/xlink">
<g><path style="opacity:0.688" fill="#98bbf6" d="M 36.5,39.5 C 36.8333,39.5 37.1667,39.5 37.5,39.5C 42.3633,39.1805 47.03,39.5139 51.5,40.5C 45.4638,40.3599 39.4638,40.6932 33.5,41.5C 34.5,40.8333 35.5,40.1667 36.5,39.5 Z"/></g>
<g><path style="opacity:0.067" fill="#d4e6fb" d="M 36.5,39.5 C 35.5,40.1667 34.5,40.8333 33.5,41.5C 32.5084,41.3284 31.8417,41.6618 31.5,42.5C 30.1667,42.5 28.8333,42.5 27.5,42.5C 30.0836,40.5275 33.0836,39.5275 36.5,39.5 Z"/></g>
<g><path style="opacity:0.992" fill="#5e8bdd" d="M 51.5,40.5 C 56.5813,40.5081 60.9146,42.1748 64.5,45.5C 53.786,41.929 42.786,40.929 31.5,42.5C 31.8417,41.6618 32.5084,41.3284 33.5,41.5C 39.4638,40.6932 45.4638,40.3599 51.5,40.5 Z"/></g>
<g><path style="opacity:1" fill="#4a8bfb" d="M 64.5,45.5 C 66.0746,47.1137 66.7413,49.1137 66.5,51.5C 69.1522,51.4095 71.4855,52.0762 73.5,53.5C 72.6868,54.6527 71.6868,54.6527 70.5,53.5C 69.1656,55.8183 69.8323,57.485 72.5,58.5C 73.4519,60.0453 73.7852,61.712 73.5,63.5C 74.5,63.5 75.5,63.5 76.5,63.5C 76.741,66.999 75.9076,67.3323 74,64.5C 70.12,68.4932 68.9533,67.6598 70.5,62C 69.0563,61.2195 67.723,61.3861 66.5,62.5C 65.6072,65.0841 65.2739,67.7508 65.5,70.5C 63.7538,73.6818 61.0871,75.3485 57.5,75.5C 57.1667,72.8333 56.8333,70.1667 56.5,67.5C 45.1834,66.8101 33.85,66.3101 22.5,66C 21.6667,65.1667 20.8333,64.3333 20,63.5C 19.0206,65.3203 17.5206,66.487 15.5,67C 14.348,77.0895 14.1814,87.2562 15,97.5C 16.9719,99.2318 19.1386,100.565 21.5,101.5C 21.631,102.239 21.4643,102.906 21,103.5C 19.7083,102.209 18.5417,102.209 17.5,103.5C 16.1667,103.5 14.8333,103.5 13.5,103.5C 13.7852,105.288 13.4519,106.955 12.5,108.5C 10.9291,107.691 9.26241,107.357 7.5,107.5C 7.5,107.167 7.5,106.833 7.5,106.5C 6.76821,101.233 5.26821,96.2328 3,91.5C 2.50085,86.8452 2.33418,82.1785 2.5,77.5C 2.5,76.1667 2.5,74.8333 2.5,73.5C 2.55688,72.391 2.89022,71.391 3.5,70.5C 4.76401,68.7299 6.26401,67.0632 8,65.5C 8.49546,63.5273 8.66212,61.5273 8.5,59.5C 11.2427,57.7607 13.2427,55.4274 14.5,52.5C 17.7915,50.5419 20.7915,48.2085 23.5,45.5C 26.3973,44.871 29.064,43.871 31.5,42.5C 42.786,40.929 53.786,41.929 64.5,45.5 Z"/></g>
<g><path style="opacity:0.937" fill="#8baaea" d="M 27.5,42.5 C 28.8333,42.5 30.1667,42.5 31.5,42.5C 29.064,43.871 26.3973,44.871 23.5,45.5C 23.8333,44.8333 24.1667,44.1667 24.5,43.5C 25.391,42.8902 26.391,42.5569 27.5,42.5 Z"/></g>
<g><path style="opacity:0.086" fill="#dbeefe" d="M 24.5,43.5 C 24.1667,44.1667 23.8333,44.8333 23.5,45.5C 21.8333,46.1667 20.1667,46.8333 18.5,47.5C 19.8021,45.1782 21.8021,43.8449 24.5,43.5 Z"/></g>
<g><path style="opacity:0.937" fill="#779cdf" d="M 23.5,45.5 C 20.7915,48.2085 17.7915,50.5419 14.5,52.5C 15.8333,50.8333 17.1667,49.1667 18.5,47.5C 20.1667,46.8333 21.8333,46.1667 23.5,45.5 Z"/></g>
<g><path style="opacity:1" fill="#588deb" d="M 64.5,45.5 C 68.9965,46.9996 72.9965,49.333 76.5,52.5C 76.5,53.1667 76.5,53.8333 76.5,54.5C 75.391,54.4431 74.391,54.1098 73.5,53.5C 71.4855,52.0762 69.1522,51.4095 66.5,51.5C 66.7413,49.1137 66.0746,47.1137 64.5,45.5 Z"/></g>
<g><path style="opacity:0.478" fill="#c2e1fd" d="M 18.5,47.5 C 17.1667,49.1667 15.8333,50.8333 14.5,52.5C 11.7573,54.2393 9.75731,56.5726 8.5,59.5C 7.5,60.1667 6.5,60.8333 5.5,61.5C 8.44812,55.5517 12.7815,50.885 18.5,47.5 Z"/></g>
<g><path style="opacity:0.925" fill="#709adf" d="M 14.5,52.5 C 13.2427,55.4274 11.2427,57.7607 8.5,59.5C 9.75731,56.5726 11.7573,54.2393 14.5,52.5 Z"/></g>
<g><path style="opacity:1" fill="#6a94dd" d="M 76.5,52.5 C 80.0521,55.3865 82.3854,59.0532 83.5,63.5C 80.6361,60.8891 78.3028,57.8891 76.5,54.5C 76.5,53.8333 76.5,53.1667 76.5,52.5 Z"/></g>
<g><path style="opacity:1" fill="#4e8bf3" d="M 73.5,53.5 C 74.391,54.1098 75.391,54.4431 76.5,54.5C 78.3028,57.8891 80.6361,60.8891 83.5,63.5C 85.341,65.8485 86.6743,68.5152 87.5,71.5C 88.3197,77.7974 88.653,84.1308 88.5,90.5C 87.8333,91.1667 87.1667,91.8333 86.5,92.5C 86.59,90.3037 86.9233,88.137 87.5,86C 86.1642,80.7912 84.9975,75.6245 84,70.5C 82.7237,73.2803 81.2237,75.947 79.5,78.5C 78.5224,78.0233 77.6891,77.3567 77,76.5C 76.502,79.4816 76.3354,82.4816 76.5,85.5C 82.5875,86.3379 84.5875,89.6713 82.5,95.5C 81.5258,93.2573 81.1924,90.924 81.5,88.5C 76.7251,88.1394 75.3918,90.1394 77.5,94.5C 76.5401,96.4771 75.5401,98.4771 74.5,100.5C 75.365,101.583 76.365,101.749 77.5,101C 78.7875,99.5905 79.9542,98.0905 81,96.5C 81.3333,99.1667 81.6667,101.833 82,104.5C 82.2784,103.584 82.7784,102.918 83.5,102.5C 83.5,103.5 83.5,104.5 83.5,105.5C 81.2729,106.401 80.2729,108.067 80.5,110.5C 79.8333,111.5 79.1667,112.5 78.5,113.5C 76.8007,113.527 75.4674,114.194 74.5,115.5C 74.5,113.5 74.5,111.5 74.5,109.5C 76.1667,109.5 77.8333,109.5 79.5,109.5C 79.5,108.167 79.5,106.833 79.5,105.5C 75.713,106.186 72.5463,105.186 70,102.5C 68.8456,104.957 67.5123,104.957 66,102.5C 64.4757,105.236 62.309,107.236 59.5,108.5C 60.8146,109.895 60.4812,110.895 58.5,111.5C 58.5123,109.588 58.179,107.588 57.5,105.5C 59.6565,104.21 61.9899,103.376 64.5,103C 64.1667,102.667 63.8333,102.333 63.5,102C 65.1554,100.556 65.822,98.7224 65.5,96.5C 65.8333,96.5 66.1667,96.5 66.5,96.5C 68.2133,98.8504 70.5466,99.8504 73.5,99.5C 73.5,89.5 73.5,79.5 73.5,69.5C 72.5,69.5 71.5,69.5 70.5,69.5C 68.7839,69.6287 67.1172,69.962 65.5,70.5C 65.2739,67.7508 65.6072,65.0841 66.5,62.5C 67.723,61.3861 69.0563,61.2195 70.5,62C 68.9533,67.6598 70.12,68.4932 74,64.5C 75.9076,67.3323 76.741,66.999 76.5,63.5C 75.5,63.5 74.5,63.5 73.5,63.5C 73.7852,61.712 73.4519,60.0453 72.5,58.5C 69.8323,57.485 69.1656,55.8183 70.5,53.5C 71.6868,54.6527 72.6868,54.6527 73.5,53.5 Z"/></g>
<g><path style="opacity:0.2" fill="#cce2fa" d="M 37.5,39.5 C 66.6006,36.7386 84.4339,49.7386 91,78.5C 91.5396,86.5409 90.3729,94.2076 87.5,101.5C 87.7244,97.8212 88.0578,94.1545 88.5,90.5C 89.1641,88.0221 89.4975,85.3555 89.5,82.5C 89.7058,78.5313 89.0392,74.8646 87.5,71.5C 86.6743,68.5152 85.341,65.8485 83.5,63.5C 82.3854,59.0532 80.0521,55.3865 76.5,52.5C 72.9965,49.333 68.9965,46.9996 64.5,45.5C 60.9146,42.1748 56.5813,40.5081 51.5,40.5C 47.03,39.5139 42.3633,39.1805 37.5,39.5 Z"/></g>
<g><path style="opacity:1" fill="#5f94e1" d="M 8.5,59.5 C 8.66212,61.5273 8.49546,63.5273 8,65.5C 6.26401,67.0632 4.76401,68.7299 3.5,70.5C 3.87256,67.4261 4.53922,64.4261 5.5,61.5C 6.5,60.8333 7.5,60.1667 8.5,59.5 Z"/></g>
<g><path style="opacity:0.471" fill="#c1d6f4" d="M 144.5,67.5 C 144.167,67.5 143.833,67.5 143.5,67.5C 142.292,66.7659 140.959,66.4326 139.5,66.5C 129.681,65.506 119.681,65.1726 109.5,65.5C 109.325,67.6208 109.659,69.6208 110.5,71.5C 109.25,71.4226 108.417,70.756 108,69.5C 107.257,67.5594 107.424,65.7261 108.5,64C 118.833,63.3333 129.167,63.3333 139.5,64C 141.973,64.2195 143.64,65.3862 144.5,67.5 Z"/></g>
<g><path style="opacity:0.043" fill="#e3f5fe" d="M 171.5,65.5 C 167.469,64.4849 163.469,64.4849 159.5,65.5C 159.167,65.5 158.833,65.5 158.5,65.5C 162.815,62.9386 167.148,62.9386 171.5,65.5 Z"/></g>
<g><path style="opacity:0.42" fill="#d0e1f9" d="M 212.5,65.5 C 208.298,65.1832 204.298,65.5166 200.5,66.5C 197.127,67.0659 194.127,68.3993 191.5,70.5C 191.414,69.5041 191.748,68.6708 192.5,68C 198.911,63.5422 205.578,62.7088 212.5,65.5 Z"/></g>
<g><path style="opacity:0.369" fill="#d6e5f6" d="M 248.5,65.5 C 244.5,65.5 240.5,65.5 236.5,65.5C 240.5,62.8333 244.5,62.8333 248.5,65.5 Z"/></g>
<g><path style="opacity:0.318" fill="#d9e6fa" d="M 271.5,65.5 C 267.833,65.5 264.167,65.5 260.5,65.5C 264.167,62.8333 267.833,62.8333 271.5,65.5 Z"/></g>
<g><path style="opacity:0.894" fill="#7499e0" d="M 139.5,66.5 C 138.167,66.5 136.833,66.5 135.5,66.5C 127.14,66.1688 118.807,66.5021 110.5,67.5C 110.968,69.1338 111.968,70.3005 113.5,71C 119.681,71.1724 125.681,71.6724 131.5,72.5C 124.443,72.76 117.443,72.4267 110.5,71.5C 109.659,69.6208 109.325,67.6208 109.5,65.5C 119.681,65.1726 129.681,65.506 139.5,66.5 Z"/></g>
<g><path style="opacity:0.847" fill="#8ea9ed" d="M 171.5,65.5 C 171.5,65.8333 171.5,66.1667 171.5,66.5C 167.5,66.5 163.5,66.5 159.5,66.5C 159.5,66.1667 159.5,65.8333 159.5,65.5C 163.469,64.4849 167.469,64.4849 171.5,65.5 Z"/></g>
<g><path style="opacity:0.863" fill="#809fe7" d="M 200.5,66.5 C 204.298,65.5166 208.298,65.1832 212.5,65.5C 212.833,66.1667 213.167,66.8333 213.5,67.5C 209.232,66.6274 204.898,66.2941 200.5,66.5 Z"/></g>
<g><path style="opacity:0.871" fill="#7d9fe2" d="M 236.5,65.5 C 240.5,65.5 244.5,65.5 248.5,65.5C 248.833,65.5 249.167,65.5 249.5,65.5C 249.733,67.0618 250.4,68.3951 251.5,69.5C 249.131,67.5935 246.298,66.5935 243,66.5C 240.449,66.6249 237.949,66.9582 235.5,67.5C 235.833,66.8333 236.167,66.1667 236.5,65.5 Z"/></g>
<g><path style="opacity:1" fill="#558aea" d="M 135.5,66.5 C 135.53,67.4972 135.03,68.1639 134,68.5C 127.18,67.2207 120.347,67.2207 113.5,68.5C 120.833,69.1667 128.167,69.8333 135.5,70.5C 133.827,72.5225 133.16,74.8559 133.5,77.5C 131.5,78.1667 129.5,78.8333 127.5,79.5C 128.793,77.7041 130.293,76.0375 132,74.5C 132.692,73.5632 132.525,72.8966 131.5,72.5C 125.681,71.6724 119.681,71.1724 113.5,71C 111.968,70.3005 110.968,69.1338 110.5,67.5C 118.807,66.5021 127.14,66.1688 135.5,66.5 Z"/></g>
<g><path style="opacity:0.332" fill="#bed2f4" d="M 236.5,65.5 C 236.167,66.1667 235.833,66.8333 235.5,67.5C 234.167,67.5 232.833,67.5 231.5,67.5C 230.432,66.5655 229.099,66.2322 227.5,66.5C 227.5,78.5 227.5,90.5 227.5,102.5C 226.505,90.011 226.171,77.3443 226.5,64.5C 229.191,63.7245 231.691,64.3912 234,66.5C 234.671,65.7476 235.504,65.4142 236.5,65.5 Z"/></g>
<g><path style="opacity:0.412" fill="#c2d8f5" d="M 249.5,65.5 C 251.517,66.5294 253.517,67.5294 255.5,68.5C 255.5,68.8333 255.5,69.1667 255.5,69.5C 254.167,69.5 252.833,69.5 251.5,69.5C 250.4,68.3951 249.733,67.0618 249.5,65.5 Z"/></g>
<g><path style="opacity:0.353" fill="#c6d7f9" d="M 259.5,65.5 C 258.738,67.2624 257.404,68.2624 255.5,68.5C 256.262,66.7376 257.596,65.7376 259.5,65.5 Z"/></g>
<g><path style="opacity:0.4" fill="#b9ccf2" d="M 171.5,65.5 C 174.719,66.0693 177.052,67.736 178.5,70.5C 176.313,69.242 173.98,68.242 171.5,67.5C 171.5,67.1667 171.5,66.8333 171.5,66.5C 171.5,66.1667 171.5,65.8333 171.5,65.5 Z"/></g>
<g><path style="opacity:1" fill="#4f8af3" d="M 159.5,66.5 C 163.5,66.5 167.5,66.5 171.5,66.5C 171.5,66.8333 171.5,67.1667 171.5,67.5C 172.823,69.4714 174.156,71.4714 175.5,73.5C 175.167,73.8333 174.833,74.1667 174.5,74.5C 168.786,71.5949 162.786,70.9282 156.5,72.5C 154.07,70.9626 154.07,69.296 156.5,67.5C 157.391,66.8902 158.391,66.5569 159.5,66.5 Z"/></g>
<g><path style="opacity:0.028" fill="#e6fcff" d="M 49.5,69.5 C 52.1979,69.8449 54.1979,71.1782 55.5,73.5C 55.5,74.1667 55.5,74.8333 55.5,75.5C 54.3536,73.525 52.687,72.025 50.5,71C 39.505,70.5002 28.505,70.3335 17.5,70.5C 17.8064,73.3854 17.4731,76.0521 16.5,78.5C 16.5,75.5 16.5,72.5 16.5,69.5C 27.5,69.5 38.5,69.5 49.5,69.5 Z"/></g>
<g><path style="opacity:0.867" fill="#7598dc" d="M 200.5,66.5 C 197.511,68.0026 194.844,70.0026 192.5,72.5C 192.167,72.5 191.833,72.5 191.5,72.5C 191.5,71.8333 191.5,71.1667 191.5,70.5C 194.127,68.3993 197.127,67.0659 200.5,66.5 Z"/></g>
<g><path style="opacity:0.706" fill="#b9d1f4" d="M 212.5,65.5 C 218.602,67.934 222.602,72.2674 224.5,78.5C 225.775,81.6038 225.775,84.6038 224.5,87.5C 224.436,83.7802 223.936,80.1135 223,76.5C 222.34,74.6763 221.173,73.343 219.5,72.5C 217.909,70.3674 215.909,68.7007 213.5,67.5C 213.167,66.8333 212.833,66.1667 212.5,65.5 Z"/></g>
<g><path style="opacity:0.875" fill="#7190d0" d="M 143.5,67.5 C 143.833,67.5 144.167,67.5 144.5,67.5C 145.076,71.1125 144.076,74.1125 141.5,76.5C 141.167,76.5 140.833,76.5 140.5,76.5C 142.323,73.8367 143.323,70.8367 143.5,67.5 Z"/></g>
<g><path style="opacity:0.584" fill="#c0d1f6" d="M 158.5,65.5 C 158.833,65.5 159.167,65.5 159.5,65.5C 159.5,65.8333 159.5,66.1667 159.5,66.5C 158.391,66.5569 157.391,66.8902 156.5,67.5C 153.233,69.4273 150.233,71.7606 147.5,74.5C 149.671,69.662 153.337,66.662 158.5,65.5 Z"/></g>
<g><path style="opacity:0.925" fill="#6893de" d="M 70.5,69.5 C 67.4181,71.3719 64.7514,73.7052 62.5,76.5C 61.391,76.5569 60.391,76.8902 59.5,77.5C 58.1667,77.5 57.5,76.8333 57.5,75.5C 61.0871,75.3485 63.7538,73.6818 65.5,70.5C 67.1172,69.962 68.7839,69.6287 70.5,69.5 Z"/></g>
<g><path style="opacity:0.545" fill="#bad0f6" d="M 191.5,70.5 C 191.5,71.1667 191.5,71.8333 191.5,72.5C 190.026,73.4363 189.026,74.7697 188.5,76.5C 188.167,76.5 187.833,76.5 187.5,76.5C 187.845,73.8021 189.178,71.8021 191.5,70.5 Z"/></g>
<g><path style="opacity:1" fill="#518af0" d="M 200.5,66.5 C 204.898,66.2941 209.232,66.6274 213.5,67.5C 215.909,68.7007 217.909,70.3674 219.5,72.5C 218.167,72.5 216.833,72.5 215.5,72.5C 215.392,74.5138 216.058,76.1805 217.5,77.5C 217.167,77.5 216.833,77.5 216.5,77.5C 215.395,76.3995 214.062,75.7329 212.5,75.5C 212.586,74.5041 212.252,73.6708 211.5,73C 208.607,71.8512 205.607,71.3512 202.5,71.5C 197.977,71.345 194.811,73.345 193,77.5C 192.501,82.4889 192.334,87.4889 192.5,92.5C 191.292,91.7659 189.959,91.4326 188.5,91.5C 188.5,91.1667 188.5,90.8333 188.5,90.5C 188.5,86.8333 188.5,83.1667 188.5,79.5C 189.5,79.5 190.5,79.5 191.5,79.5C 191.298,77.0504 191.631,74.717 192.5,72.5C 194.844,70.0026 197.511,68.0026 200.5,66.5 Z"/></g>
<g><path style="opacity:0.759" fill="#9ebaef" d="M 202.5,71.5 C 205.607,71.3512 208.607,71.8512 211.5,73C 212.252,73.6708 212.586,74.5041 212.5,75.5C 209.598,74.4222 206.598,73.7556 203.5,73.5C 202.833,73.5 202.167,73.5 201.5,73.5C 201.833,72.8333 202.167,72.1667 202.5,71.5 Z"/></g>
<g><path style="opacity:0.188" fill="#cde4fd" d="M 110.5,71.5 C 117.443,72.4267 124.443,72.76 131.5,72.5C 132.525,72.8966 132.692,73.5632 132,74.5C 130.293,76.0375 128.793,77.7041 127.5,79.5C 127.167,79.5 126.833,79.5 126.5,79.5C 127.203,77.2843 128.536,75.451 130.5,74C 124.167,73.6667 117.833,73.3333 111.5,73C 110.944,72.6174 110.611,72.1174 110.5,71.5 Z"/></g>
<g><path style="opacity:1" fill="#608fe8" d="M 156.5,67.5 C 154.07,69.296 154.07,70.9626 156.5,72.5C 162.786,70.9282 168.786,71.5949 174.5,74.5C 174.833,74.1667 175.167,73.8333 175.5,73.5C 174.156,71.4714 172.823,69.4714 171.5,67.5C 173.98,68.242 176.313,69.242 178.5,70.5C 178.557,71.609 178.89,72.609 179.5,73.5C 178.504,73.4142 177.671,73.7476 177,74.5C 176.506,76.1341 176.34,77.8008 176.5,79.5C 175.441,77.4446 173.775,76.1112 171.5,75.5C 170.448,73.744 168.781,73.0773 166.5,73.5C 162.289,72.2797 158.456,73.2797 155,76.5C 153.448,78.7682 152.615,81.2682 152.5,84C 152.307,86.0081 152.974,87.5081 154.5,88.5C 154.5,89.8333 154.5,91.1667 154.5,92.5C 152.579,90.6081 151.246,88.2747 150.5,85.5C 151.155,81.375 152.155,77.375 153.5,73.5C 152.5,73.5 151.5,73.5 150.5,73.5C 150.245,76.0163 149.411,78.3496 148,80.5C 147.617,79.944 147.117,79.6107 146.5,79.5C 147.038,77.8828 147.371,76.2161 147.5,74.5C 150.233,71.7606 153.233,69.4273 156.5,67.5 Z"/></g>
<g><path style="opacity:0.647" fill="#c0d5f6" d="M 166.5,73.5 C 168.781,73.0773 170.448,73.744 171.5,75.5C 169.597,75.2041 167.93,74.5375 166.5,73.5 Z"/></g>
<g><path style="opacity:1" fill="#4a8afc" d="M 86.5,92.5 C 86.3956,96.2066 85.3956,99.54 83.5,102.5C 82.7784,102.918 82.2784,103.584 82,104.5C 81.6667,101.833 81.3333,99.1667 81,96.5C 79.9542,98.0905 78.7875,99.5905 77.5,101C 76.365,101.749 75.365,101.583 74.5,100.5C 75.5401,98.4771 76.5401,96.4771 77.5,94.5C 75.3918,90.1394 76.7251,88.1394 81.5,88.5C 81.1924,90.924 81.5258,93.2573 82.5,95.5C 84.5875,89.6713 82.5875,86.3379 76.5,85.5C 76.3354,82.4816 76.502,79.4816 77,76.5C 77.6891,77.3567 78.5224,78.0233 79.5,78.5C 81.2237,75.947 82.7237,73.2803 84,70.5C 84.9975,75.6245 86.1642,80.7912 87.5,86C 86.9233,88.137 86.59,90.3037 86.5,92.5 Z"/></g>
<g><path style="opacity:0.02" fill="#dfecfd" d="M 144.5,67.5 C 147.677,71.7746 146.677,74.7746 141.5,76.5C 144.076,74.1125 145.076,71.1125 144.5,67.5 Z"/></g>
<g><path style="opacity:0.067" fill="#d1e2fd" d="M 166.5,73.5 C 157.058,74.0209 153.058,79.0209 154.5,88.5C 152.974,87.5081 152.307,86.0081 152.5,84C 152.615,81.2682 153.448,78.7682 155,76.5C 158.456,73.2797 162.289,72.2797 166.5,73.5 Z"/></g>
<g><path style="opacity:0.02" fill="#e3f0ff" d="M 201.5,73.5 C 202.167,73.5 202.833,73.5 203.5,73.5C 202.07,74.5375 200.403,75.2041 198.5,75.5C 198.973,74.0937 199.973,73.427 201.5,73.5 Z"/></g>
<g><path style="opacity:0.404" fill="#c8dbfa" d="M 5.5,61.5 C 4.53922,64.4261 3.87256,67.4261 3.5,70.5C 2.89022,71.391 2.55688,72.391 2.5,73.5C 1.83333,74.5 1.16667,75.5 0.5,76.5C 1.10617,71.0453 2.77284,66.0453 5.5,61.5 Z"/></g>
<g><path style="opacity:0.263" fill="#ccdff9" d="M 271.5,65.5 C 276.933,67.2661 280.266,70.9327 281.5,76.5C 281.167,76.5 280.833,76.5 280.5,76.5C 278.602,71.9349 275.602,68.2682 271.5,65.5 Z"/></g>
<g><path style="opacity:1" fill="#4d89f8" d="M 219.5,72.5 C 220.793,76.3401 221.793,80.3401 222.5,84.5C 221.838,87.4682 221.505,90.4682 221.5,93.5C 221.5,93.8333 221.5,94.1667 221.5,94.5C 220.5,94.5 219.5,94.5 218.5,94.5C 218.5,95.5 218.5,96.5 218.5,97.5C 216.641,97.4609 215.308,98.2942 214.5,100C 212.866,100.494 211.199,100.66 209.5,100.5C 209.5,99.5 209.5,98.5 209.5,97.5C 218.3,93.4029 220.966,86.7362 217.5,77.5C 216.058,76.1805 215.392,74.5138 215.5,72.5C 216.833,72.5 218.167,72.5 219.5,72.5 Z"/></g>
<g><path style="opacity:1" fill="#5489e7" d="M 191.5,72.5 C 191.833,72.5 192.167,72.5 192.5,72.5C 191.631,74.717 191.298,77.0504 191.5,79.5C 190.5,79.5 189.5,79.5 188.5,79.5C 188.5,83.1667 188.5,86.8333 188.5,90.5C 187.833,90.5 187.5,90.1667 187.5,89.5C 187.294,85.1018 187.627,80.7685 188.5,76.5C 189.026,74.7697 190.026,73.4363 191.5,72.5 Z"/></g>
<g><path style="opacity:1" fill="#548bf1" d="M 179.5,73.5 C 183.381,78.3421 184.381,83.6755 182.5,89.5C 181.504,89.4142 180.671,89.7476 180,90.5C 179.25,95.5535 178.084,95.7201 176.5,91C 176.611,89.2785 177.111,89.1118 178,90.5C 178.167,89 178.333,87.5 178.5,86C 178.664,83.4563 177.997,81.2897 176.5,79.5C 176.34,77.8008 176.506,76.1341 177,74.5C 177.671,73.7476 178.504,73.4142 179.5,73.5 Z"/></g>
<g><path style="opacity:0.514" fill="#b8cff3" d="M 178.5,70.5 C 182.29,73.0731 184.29,76.7397 184.5,81.5C 184.5,83.5 184.5,85.5 184.5,87.5C 181.276,101.087 172.943,106.421 159.5,103.5C 159.5,103.167 159.5,102.833 159.5,102.5C 163.514,102.666 167.514,102.499 171.5,102C 173.32,101.8 174.653,100.966 175.5,99.5C 175.5,98.8333 175.833,98.5 176.5,98.5C 177.481,96.6908 178.981,95.3574 181,94.5C 181.608,92.8455 182.108,91.1789 182.5,89.5C 184.381,83.6755 183.381,78.3421 179.5,73.5C 178.89,72.609 178.557,71.609 178.5,70.5 Z"/></g>
<g><path style="opacity:1" fill="#6391e4" d="M 202.5,71.5 C 202.167,72.1667 201.833,72.8333 201.5,73.5C 199.973,73.427 198.973,74.0937 198.5,75.5C 195.832,76.4567 194.332,78.4567 194,81.5C 193.115,84.538 193.615,87.2046 195.5,89.5C 196.415,91.7541 197.748,93.7541 199.5,95.5C 197.313,94.242 194.98,93.242 192.5,92.5C 192.334,87.4889 192.501,82.4889 193,77.5C 194.811,73.345 197.977,71.345 202.5,71.5 Z"/></g>
<g><path style="opacity:1" fill="#4d8af7" d="M 251.5,69.5 C 252.833,69.5 254.167,69.5 255.5,69.5C 258.752,68.6234 262.085,67.9567 265.5,67.5C 268.58,67.3196 271.413,67.9862 274,69.5C 276.152,72.6343 277.818,75.9677 279,79.5C 279.831,86.5237 279.664,93.5237 278.5,100.5C 277.667,99.5 276.833,98.5 276,97.5C 275.667,91.1667 275.333,84.8333 275,78.5C 274.722,77.5842 274.222,76.9175 273.5,76.5C 273.167,75.8333 272.833,75.1667 272.5,74.5C 271.308,72.0777 269.308,71.0777 266.5,71.5C 265.167,71.6667 263.833,71.8333 262.5,72C 261.944,72.3826 261.611,72.8826 261.5,73.5C 260.833,73.5 260.5,73.8333 260.5,74.5C 259.391,74.5569 258.391,74.8902 257.5,75.5C 256.508,83.3159 256.174,91.3159 256.5,99.5C 254.089,99.8633 252.589,98.8633 252,96.5C 251.828,89.9867 251.328,83.6534 250.5,77.5C 249.275,71.7432 245.942,70.0766 240.5,72.5C 238.143,72.3367 235.81,72.5034 233.5,73C 235.689,73.677 236.022,74.8437 234.5,76.5C 232.955,77.4519 231.288,77.7852 229.5,77.5C 229.5,74.5 229.5,71.5 229.5,68.5C 229.842,67.6618 230.508,67.3284 231.5,67.5C 232.833,67.5 234.167,67.5 235.5,67.5C 237.949,66.9582 240.449,66.6249 243,66.5C 246.298,66.5935 249.131,67.5935 251.5,69.5 Z"/></g>
<g><path style="opacity:0.051" fill="#d9e6fe" d="M 240.5,72.5 C 242.898,72.2594 244.898,72.9261 246.5,74.5C 242.834,73.2725 239.5,73.9392 236.5,76.5C 236.369,75.7611 236.536,75.0944 237,74.5C 238.302,73.9152 239.469,73.2485 240.5,72.5 Z"/></g>
<g><path style="opacity:0.22" fill="#d1e1fe" d="M 267.5,73.5 C 265.035,73.767 262.701,74.4336 260.5,75.5C 260.5,75.1667 260.5,74.8333 260.5,74.5C 260.5,73.8333 260.833,73.5 261.5,73.5C 263.653,72.4271 265.653,72.4271 267.5,73.5 Z"/></g>
<g><path style="opacity:0.984" fill="#6d97e1" d="M 240.5,72.5 C 245.942,70.0766 249.275,71.7432 250.5,77.5C 249.596,76.791 249.263,75.791 249.5,74.5C 248.5,74.5 247.5,74.5 246.5,74.5C 244.898,72.9261 242.898,72.2594 240.5,72.5 Z"/></g>
<g><path style="opacity:0.737" fill="#89a9e7" d="M 272.5,74.5 C 271.833,74.5 271.167,74.5 270.5,74.5C 269.209,74.7373 268.209,74.404 267.5,73.5C 265.653,72.4271 263.653,72.4271 261.5,73.5C 261.611,72.8826 261.944,72.3826 262.5,72C 263.833,71.8333 265.167,71.6667 266.5,71.5C 269.308,71.0777 271.308,72.0777 272.5,74.5 Z"/></g>
<g><path style="opacity:0.012" fill="#dae4fb" d="M 140.5,76.5 C 140.833,76.5 141.167,76.5 141.5,76.5C 140.833,79.1667 139.167,80.8333 136.5,81.5C 137.167,80.5 137.833,79.5 138.5,78.5C 138.833,77.5 139.5,76.8333 140.5,76.5 Z"/></g>
<g><path style="opacity:1" fill="#5a8eed" d="M 229.5,68.5 C 229.5,71.5 229.5,74.5 229.5,77.5C 231.288,77.7852 232.955,77.4519 234.5,76.5C 236.022,74.8437 235.689,73.677 233.5,73C 235.81,72.5034 238.143,72.3367 240.5,72.5C 239.469,73.2485 238.302,73.9152 237,74.5C 236.536,75.0944 236.369,75.7611 236.5,76.5C 235.778,76.9175 235.278,77.5842 235,78.5C 234.828,85.346 234.328,92.0126 233.5,98.5C 233.167,98.5 232.833,98.5 232.5,98.5C 232.82,95.1016 232.487,91.7683 231.5,88.5C 229.987,90.5355 229.321,92.8688 229.5,95.5C 229.556,97.6397 230.223,99.3064 231.5,100.5C 230.791,101.404 229.791,101.737 228.5,101.5C 228.172,90.3206 228.505,79.3206 229.5,68.5 Z"/></g>
<g><path style="opacity:1" fill="#638fdf" d="M 259.5,65.5 C 259.833,65.5 260.167,65.5 260.5,65.5C 264.167,65.5 267.833,65.5 271.5,65.5C 275.602,68.2682 278.602,71.9349 280.5,76.5C 280.5,85.1667 280.5,93.8333 280.5,102.5C 279.5,102.5 278.5,102.5 277.5,102.5C 275.827,101.657 274.66,100.324 274,98.5C 273.5,91.1742 273.334,83.8409 273.5,76.5C 274.222,76.9175 274.722,77.5842 275,78.5C 275.333,84.8333 275.667,91.1667 276,97.5C 276.833,98.5 277.667,99.5 278.5,100.5C 279.664,93.5237 279.831,86.5237 279,79.5C 277.818,75.9677 276.152,72.6343 274,69.5C 271.413,67.9862 268.58,67.3196 265.5,67.5C 262.085,67.9567 258.752,68.6234 255.5,69.5C 255.5,69.1667 255.5,68.8333 255.5,68.5C 257.404,68.2624 258.738,67.2624 259.5,65.5 Z"/></g>
<g><path style="opacity:0.928" fill="#7aa0e8" d="M 87.5,71.5 C 89.0392,74.8646 89.7058,78.5313 89.5,82.5C 89.4975,85.3555 89.1641,88.0221 88.5,90.5C 88.653,84.1308 88.3197,77.7974 87.5,71.5 Z"/></g>
<g><path style="opacity:1" fill="#6793e4" d="M 138.5,78.5 C 137.833,79.5 137.167,80.5 136.5,81.5C 134.738,82.2623 133.738,83.5956 133.5,85.5C 133.167,85.5 132.833,85.5 132.5,85.5C 131.167,86.5 129.833,87.5 128.5,88.5C 128.232,86.901 128.566,85.5676 129.5,84.5C 130.5,84.5 131.5,84.5 132.5,84.5C 132.227,82.549 132.893,81.049 134.5,80C 134.167,79.6667 133.833,79.3333 133.5,79C 135.134,78.5065 136.801,78.3398 138.5,78.5 Z"/></g>
<g><path style="opacity:0.588" fill="#b6cdfa" d="M 147.5,74.5 C 147.371,76.2161 147.038,77.8828 146.5,79.5C 146.5,82.1667 146.5,84.8333 146.5,87.5C 146.629,89.2161 146.962,90.8828 147.5,92.5C 147.167,92.5 146.833,92.5 146.5,92.5C 143.594,86.3209 143.927,80.3209 147.5,74.5 Z"/></g>
<g><path style="opacity:0.055" fill="#d6e3fd" d="M 198.5,75.5 C 195.803,79.693 194.803,84.3597 195.5,89.5C 193.615,87.2046 193.115,84.538 194,81.5C 194.332,78.4567 195.832,76.4567 198.5,75.5 Z"/></g>
<g><path style="opacity:0.846" fill="#85a6d3" d="M 56.5,75.5 C 56.8333,75.5 57.1667,75.5 57.5,75.5C 57.5,76.8333 58.1667,77.5 59.5,77.5C 58.5701,81.3998 58.2367,85.3998 58.5,89.5C 57.8333,92.8333 57.1667,96.1667 56.5,99.5C 56.5,91.5 56.5,83.5 56.5,75.5 Z"/></g>
<g><path style="opacity:0.104" fill="#d8e8fc" d="M 270.5,74.5 C 271.167,74.5 271.833,74.5 272.5,74.5C 272.833,75.1667 273.167,75.8333 273.5,76.5C 273.334,83.8409 273.5,91.1742 274,98.5C 274.66,100.324 275.827,101.657 277.5,102.5C 278.568,103.434 279.901,103.768 281.5,103.5C 277.443,105.354 274.609,104.021 273,99.5C 272.667,92.1667 272.333,84.8333 272,77.5C 271.487,76.4734 270.987,75.4734 270.5,74.5 Z"/></g>
<g><path style="opacity:0.42" fill="#bcd6f8" d="M 49.5,69.5 C 38.5,69.5 27.5,69.5 16.5,69.5C 16.5,72.5 16.5,75.5 16.5,78.5C 17.8032,82.6674 17.8032,86.834 16.5,91C 17.464,92.7255 18.1307,94.5588 18.5,96.5C 17.5416,96.0472 16.7083,95.3805 16,94.5C 15.5002,85.8397 15.3336,77.1731 15.5,68.5C 27.0123,68.1719 38.3456,68.5052 49.5,69.5 Z"/></g>
<g><path style="opacity:0.012" fill="#e9f1ff" d="M 136.5,81.5 C 136.262,83.4044 135.262,84.7377 133.5,85.5C 133.738,83.5956 134.738,82.2623 136.5,81.5 Z"/></g>
<g><path style="opacity:0.757" fill="#8da8e1" d="M 187.5,76.5 C 187.833,76.5 188.167,76.5 188.5,76.5C 187.627,80.7685 187.294,85.1018 187.5,89.5C 187.167,89.5 186.833,89.5 186.5,89.5C 186.5,85.8333 186.5,82.1667 186.5,78.5C 186.328,77.5084 186.662,76.8417 187.5,76.5 Z"/></g>
<g><path style="opacity:0.188" fill="#c7ddfb" d="M 212.5,75.5 C 214.062,75.7329 215.395,76.3995 216.5,77.5C 219.007,91.3246 213.341,97.3246 199.5,95.5C 197.748,93.7541 196.415,91.7541 195.5,89.5C 202.001,96.1335 208.501,96.1335 215,89.5C 217.32,84.2664 216.487,79.5998 212.5,75.5 Z"/></g>
<g><path style="opacity:1" fill="#5e8ce4" d="M 219.5,72.5 C 221.173,73.343 222.34,74.6763 223,76.5C 223.936,80.1135 224.436,83.7802 224.5,87.5C 224.5,87.8333 224.5,88.1667 224.5,88.5C 223.687,90.2608 222.687,91.9275 221.5,93.5C 221.505,90.4682 221.838,87.4682 222.5,84.5C 221.793,80.3401 220.793,76.3401 219.5,72.5 Z"/></g>
<g><path style="opacity:0.322" fill="#d2e5fa" d="M 126.5,79.5 C 122.167,84.5 117.5,89.1667 112.5,93.5C 116.167,87.8333 120.833,83.1667 126.5,79.5 Z"/></g>
<g><path style="opacity:0.757" fill="#9db9e8" d="M 2.5,73.5 C 2.5,74.8333 2.5,76.1667 2.5,77.5C 1.51283,82.3054 1.17949,87.3054 1.5,92.5C 1.16667,92.5 0.833333,92.5 0.5,92.5C 0.5,91.8333 0.166667,91.5 -0.5,91.5C -0.5,86.5 -0.5,81.5 -0.5,76.5C -0.166667,76.5 0.166667,76.5 0.5,76.5C 1.16667,75.5 1.83333,74.5 2.5,73.5 Z"/></g>
<g><path style="opacity:0.162" fill="#cfe6fd" d="M 246.5,74.5 C 247.5,74.5 248.5,74.5 249.5,74.5C 249.263,75.791 249.596,76.791 250.5,77.5C 250.334,84.8409 250.5,92.1742 251,99.5C 251.662,100.984 252.496,102.317 253.5,103.5C 251.589,103.426 250.422,102.426 250,100.5C 249.667,93.1667 249.333,85.8333 249,78.5C 248.338,77.0161 247.504,75.6828 246.5,74.5 Z"/></g>
<g><path style="opacity:0.11" fill="#ddf1ff" d="M 186.5,78.5 C 186.5,82.1667 186.5,85.8333 186.5,89.5C 185.833,88.8333 185.167,88.1667 184.5,87.5C 184.5,85.5 184.5,83.5 184.5,81.5C 185.167,80.5 185.833,79.5 186.5,78.5 Z"/></g>
<g><path style="opacity:0.928" fill="#5c8fdf" d="M 57.5,75.5 C 57.1667,75.5 56.8333,75.5 56.5,75.5C 56.6716,74.5084 56.3382,73.8417 55.5,73.5C 54.1979,71.1782 52.1979,69.8449 49.5,69.5C 38.3456,68.5052 27.0123,68.1719 15.5,68.5C 15.3336,77.1731 15.5002,85.8397 16,94.5C 16.7083,95.3805 17.5416,96.0472 18.5,96.5C 18.7565,98.7761 20.0898,99.9428 22.5,100C 33.8284,100.5 45.1618,100.667 56.5,100.5C 45.6794,101.495 34.6794,101.828 23.5,101.5C 22.8333,101.5 22.1667,101.5 21.5,101.5C 19.1386,100.565 16.9719,99.2318 15,97.5C 14.1814,87.2562 14.348,77.0895 15.5,67C 17.5206,66.487 19.0206,65.3203 20,63.5C 20.8333,64.3333 21.6667,65.1667 22.5,66C 33.85,66.3101 45.1834,66.8101 56.5,67.5C 56.8333,70.1667 57.1667,72.8333 57.5,75.5 Z"/></g>
<g><path style="opacity:0.016" fill="#e6effe" d="M 132.5,85.5 C 132.167,87.8333 130.833,89.1667 128.5,89.5C 128.5,89.1667 128.5,88.8333 128.5,88.5C 129.833,87.5 131.167,86.5 132.5,85.5 Z"/></g>
<g><path style="opacity:0.297" fill="#c2e1fa" d="M 70.5,69.5 C 71.5,69.5 72.5,69.5 73.5,69.5C 73.5,79.5 73.5,89.5 73.5,99.5C 70.5466,99.8504 68.2133,98.8504 66.5,96.5C 63.8333,94.1667 61.1667,91.8333 58.5,89.5C 58.2367,85.3998 58.5701,81.3998 59.5,77.5C 60.391,76.8902 61.391,76.5569 62.5,76.5C 64.7514,73.7052 67.4181,71.3719 70.5,69.5 Z M 71.5,71.5 C 72.135,80.2337 71.4684,88.5671 69.5,96.5C 67.1348,94.1397 64.4681,92.1397 61.5,90.5C 59.9668,85.5783 60.3001,80.9117 62.5,76.5C 65.6612,75.0869 68.6612,73.4203 71.5,71.5 Z"/></g>
<g><path style="opacity:0.008" fill="#fbfffe" d="M 71.5,71.5 C 72.8218,80.3418 72.8218,89.3418 71.5,98.5C 70.4777,98.1445 69.811,97.4778 69.5,96.5C 71.4684,88.5671 72.135,80.2337 71.5,71.5 Z"/></g>
<g><path style="opacity:1" fill="#799fe5" d="M 128.5,88.5 C 128.5,88.8333 128.5,89.1667 128.5,89.5C 128.167,90.1667 127.833,90.8333 127.5,91.5C 126.833,91.5 126.167,91.5 125.5,91.5C 125.586,90.5041 125.252,89.6708 124.5,89C 125.793,88.51 127.127,88.3433 128.5,88.5 Z"/></g>
<g><path style="opacity:0.027" fill="#dffafd" d="M 226.5,64.5 C 226.171,77.3443 226.505,90.011 227.5,102.5C 228.568,103.434 229.901,103.768 231.5,103.5C 229.777,104.807 227.943,104.807 226,103.5C 225.826,98.6486 225.326,93.9819 224.5,89.5C 224.5,89.1667 224.5,88.8333 224.5,88.5C 224.5,88.1667 224.5,87.8333 224.5,87.5C 225.775,84.6038 225.775,81.6038 224.5,78.5C 225.167,73.8333 225.833,69.1667 226.5,64.5 Z"/></g>
<g><path style="opacity:0.539" fill="#bfd1f1" d="M 260.5,74.5 C 260.5,74.8333 260.5,75.1667 260.5,75.5C 259.776,85.1452 259.109,94.8119 258.5,104.5C 256.585,104.784 254.919,104.451 253.5,103.5C 254.833,103.5 256.167,103.5 257.5,103.5C 257.5,94.1667 257.5,84.8333 257.5,75.5C 258.391,74.8902 259.391,74.5569 260.5,74.5 Z"/></g>
<g><path style="opacity:1" fill="#668fe1" d="M 146.5,87.5 C 148.757,90.4797 150.423,93.8131 151.5,97.5C 149.457,96.4206 148.124,94.754 147.5,92.5C 146.962,90.8828 146.629,89.2161 146.5,87.5 Z"/></g>
<g><path style="opacity:0.588" fill="#b6caf1" d="M 280.5,76.5 C 280.833,76.5 281.167,76.5 281.5,76.5C 282.635,86.0604 282.635,95.0604 281.5,103.5C 279.901,103.768 278.568,103.434 277.5,102.5C 278.5,102.5 279.5,102.5 280.5,102.5C 280.5,93.8333 280.5,85.1667 280.5,76.5 Z"/></g>
<g><path style="opacity:1" fill="#5a8be0" d="M 2.5,77.5 C 2.33418,82.1785 2.50085,86.8452 3,91.5C 5.26821,96.2328 6.76821,101.233 7.5,106.5C 6.21009,105.942 5.37675,104.942 5,103.5C 3.69123,99.7459 2.52456,96.0793 1.5,92.5C 1.17949,87.3054 1.51283,82.3054 2.5,77.5 Z"/></g>
<g><path style="opacity:1" fill="#7298e4" d="M 88.5,90.5 C 88.0578,94.1545 87.7244,97.8212 87.5,101.5C 87.6716,102.492 87.3382,103.158 86.5,103.5C 85.2223,103.782 84.2223,104.449 83.5,105.5C 83.5,104.5 83.5,103.5 83.5,102.5C 85.3956,99.54 86.3956,96.2066 86.5,92.5C 87.1667,91.8333 87.8333,91.1667 88.5,90.5 Z"/></g>
<g><path style="opacity:1" fill="#5a8de5" d="M 176.5,79.5 C 177.997,81.2897 178.664,83.4563 178.5,86C 178.333,87.5 178.167,89 178,90.5C 177.111,89.1118 176.611,89.2785 176.5,91C 178.084,95.7201 179.25,95.5535 180,90.5C 180.671,89.7476 181.504,89.4142 182.5,89.5C 182.108,91.1789 181.608,92.8455 181,94.5C 178.981,95.3574 177.481,96.6908 176.5,98.5C 176.504,94.6696 174.838,93.6696 171.5,95.5C 175.557,90.9905 177.224,85.6572 176.5,79.5 Z"/></g>
<g><path style="opacity:0.235" fill="#c2d6fc" d="M 224.5,88.5 C 224.5,88.8333 224.5,89.1667 224.5,89.5C 224.539,92.089 223.539,94.089 221.5,95.5C 221.5,95.1667 221.5,94.8333 221.5,94.5C 221.5,94.1667 221.5,93.8333 221.5,93.5C 222.687,91.9275 223.687,90.2608 224.5,88.5 Z"/></g>
<g><path style="opacity:0.31" fill="#c6daf9" d="M 236.5,76.5 C 235.763,84.4667 235.263,92.4667 235,100.5C 234.578,102.426 233.411,103.426 231.5,103.5C 229.901,103.768 228.568,103.434 227.5,102.5C 231.241,103.401 233.241,102.068 233.5,98.5C 234.328,92.0126 234.828,85.346 235,78.5C 235.278,77.5842 235.778,76.9175 236.5,76.5 Z"/></g>
<g><path style="opacity:0.125" fill="#c4d6f7" d="M 186.5,89.5 C 186.833,89.5 187.167,89.5 187.5,89.5C 187.5,90.1667 187.833,90.5 188.5,90.5C 188.5,90.8333 188.5,91.1667 188.5,91.5C 189.242,93.9798 190.242,96.3131 191.5,98.5C 188.55,96.2725 186.884,93.2725 186.5,89.5 Z"/></g>
<g><path style="opacity:0.878" fill="#6b92d9" d="M 231.5,67.5 C 230.508,67.3284 229.842,67.6618 229.5,68.5C 228.505,79.3206 228.172,90.3206 228.5,101.5C 229.791,101.737 230.791,101.404 231.5,100.5C 231.833,99.8333 232.167,99.1667 232.5,98.5C 232.833,98.5 233.167,98.5 233.5,98.5C 233.241,102.068 231.241,103.401 227.5,102.5C 227.5,90.5 227.5,78.5 227.5,66.5C 229.099,66.2322 230.432,66.5655 231.5,67.5 Z"/></g>
<g><path style="opacity:0.153" fill="#c5d9fa" d="M 171.5,75.5 C 173.775,76.1112 175.441,77.4446 176.5,79.5C 177.224,85.6572 175.557,90.9905 171.5,95.5C 165.513,97.5039 160.18,96.5039 155.5,92.5C 155.167,92.5 154.833,92.5 154.5,92.5C 154.5,91.1667 154.5,89.8333 154.5,88.5C 158.705,94.6801 164.372,96.1801 171.5,93C 176.778,87.1347 176.778,81.3013 171.5,75.5 Z"/></g>
<g><path style="opacity:0.275" fill="#c9ddfa" d="M 125.5,91.5 C 126.167,91.5 126.833,91.5 127.5,91.5C 127.047,92.4584 126.381,93.2917 125.5,94C 126.766,94.3095 127.933,94.8095 129,95.5C 129.333,95.1667 129.667,94.8333 130,94.5C 134.749,95.3052 139.582,95.8052 144.5,96C 147.328,98.1619 148.328,100.829 147.5,104C 136.167,104.667 124.833,104.667 113.5,104C 109.876,101.839 108.709,98.672 110,94.5C 110.671,93.7476 111.504,93.4142 112.5,93.5C 109.401,97.9337 110.401,101.1 115.5,103C 125.828,103.5 136.161,103.666 146.5,103.5C 146.768,101.901 146.434,100.568 145.5,99.5C 145.047,98.5416 144.381,97.7083 143.5,97C 136.476,96.8311 129.476,96.3311 122.5,95.5C 123.524,94.1482 124.524,92.8149 125.5,91.5 Z"/></g>
<g><path style="opacity:1" fill="#4c8af5" d="M 154.5,92.5 C 154.833,92.5 155.167,92.5 155.5,92.5C 155.594,95.0685 156.928,96.5685 159.5,97C 162.833,97.6667 166.167,97.6667 169.5,97C 170.416,96.7216 171.082,96.2216 171.5,95.5C 174.838,93.6696 176.504,94.6696 176.5,98.5C 175.833,98.5 175.5,98.8333 175.5,99.5C 169.667,101.232 163.667,101.899 157.5,101.5C 156.878,98.2244 154.878,96.8911 151.5,97.5C 150.423,93.8131 148.757,90.4797 146.5,87.5C 146.5,84.8333 146.5,82.1667 146.5,79.5C 147.117,79.6107 147.617,79.944 148,80.5C 149.411,78.3496 150.245,76.0163 150.5,73.5C 151.5,73.5 152.5,73.5 153.5,73.5C 152.155,77.375 151.155,81.375 150.5,85.5C 151.246,88.2747 152.579,90.6081 154.5,92.5 Z"/></g>
<g><path style="opacity:1" fill="#5088fb" d="M 232.5,98.5 C 232.167,99.1667 231.833,99.8333 231.5,100.5C 230.223,99.3064 229.556,97.6397 229.5,95.5C 229.321,92.8688 229.987,90.5355 231.5,88.5C 232.487,91.7683 232.82,95.1016 232.5,98.5 Z"/></g>
<g><path style="opacity:0.955" fill="#668fda" d="M 257.5,75.5 C 257.5,84.8333 257.5,94.1667 257.5,103.5C 256.167,103.5 254.833,103.5 253.5,103.5C 252.496,102.317 251.662,100.984 251,99.5C 250.5,92.1742 250.334,84.8409 250.5,77.5C 251.328,83.6534 251.828,89.9867 252,96.5C 252.589,98.8633 254.089,99.8633 256.5,99.5C 256.174,91.3159 256.508,83.3159 257.5,75.5 Z"/></g>
<g><path style="opacity:0.906" fill="#638fe2" d="M 155.5,92.5 C 160.18,96.5039 165.513,97.5039 171.5,95.5C 171.082,96.2216 170.416,96.7216 169.5,97C 166.167,97.6667 162.833,97.6667 159.5,97C 156.928,96.5685 155.594,95.0685 155.5,92.5 Z"/></g>
<g><path style="opacity:0.055" fill="#c8daf8" d="M 221.5,95.5 C 221.573,97.0269 220.906,98.0269 219.5,98.5C 219.427,96.9731 220.094,95.9731 221.5,95.5 Z"/></g>
<g><path style="opacity:1" fill="#4c8af8" d="M 135.5,66.5 C 136.833,66.5 138.167,66.5 139.5,66.5C 140.959,66.4326 142.292,66.7659 143.5,67.5C 143.323,70.8367 142.323,73.8367 140.5,76.5C 139.5,76.8333 138.833,77.5 138.5,78.5C 136.801,78.3398 135.134,78.5065 133.5,79C 133.833,79.3333 134.167,79.6667 134.5,80C 132.893,81.049 132.227,82.549 132.5,84.5C 131.5,84.5 130.5,84.5 129.5,84.5C 129.631,83.6236 129.298,82.9569 128.5,82.5C 126.509,86.2755 123.676,89.2755 120,91.5C 117.502,94.1014 118.002,95.4347 121.5,95.5C 121.5,96.5 121.5,97.5 121.5,98.5C 129.087,98.1858 136.587,98.5192 144,99.5C 144.167,99.8333 144.333,100.167 144.5,100.5C 137.679,101.167 131.012,101.833 124.5,102.5C 120.574,102.768 116.907,101.935 113.5,100C 112.941,99.2753 112.608,98.4419 112.5,97.5C 117.515,91.4878 122.515,85.4878 127.5,79.5C 129.5,78.8333 131.5,78.1667 133.5,77.5C 133.16,74.8559 133.827,72.5225 135.5,70.5C 128.167,69.8333 120.833,69.1667 113.5,68.5C 120.347,67.2207 127.18,67.2207 134,68.5C 135.03,68.1639 135.53,67.4972 135.5,66.5 Z"/></g>
<g><path style="opacity:0.09" fill="#cfdffa" d="M 146.5,92.5 C 146.833,92.5 147.167,92.5 147.5,92.5C 148.124,94.754 149.457,96.4206 151.5,97.5C 152.167,98.5 152.833,99.5 153.5,100.5C 149.764,99.0953 147.431,96.4287 146.5,92.5 Z"/></g>
<g><path style="opacity:0.114" fill="#c9e6fc" d="M 55.5,73.5 C 56.3382,73.8417 56.6716,74.5084 56.5,75.5C 56.5,83.5 56.5,91.5 56.5,99.5C 56.5,99.8333 56.5,100.167 56.5,100.5C 45.1618,100.667 33.8284,100.5 22.5,100C 20.0898,99.9428 18.7565,98.7761 18.5,96.5C 19.4734,96.9867 20.4734,97.4867 21.5,98C 32.8284,98.4999 44.1618,98.6665 55.5,98.5C 55.342,90.6659 55.342,82.9992 55.5,75.5C 55.5,74.8333 55.5,74.1667 55.5,73.5 Z"/></g>
<g><path style="opacity:1" fill="#7095e3" d="M 126.5,79.5 C 126.833,79.5 127.167,79.5 127.5,79.5C 122.515,85.4878 117.515,91.4878 112.5,97.5C 112.608,98.4419 112.941,99.2753 113.5,100C 116.907,101.935 120.574,102.768 124.5,102.5C 131.5,102.5 138.5,102.5 145.5,102.5C 145.5,101.5 145.5,100.5 145.5,99.5C 146.434,100.568 146.768,101.901 146.5,103.5C 136.161,103.666 125.828,103.5 115.5,103C 110.401,101.1 109.401,97.9337 112.5,93.5C 117.5,89.1667 122.167,84.5 126.5,79.5 Z"/></g>
<g><path style="opacity:1" fill="#608fd8" d="M 151.5,97.5 C 154.878,96.8911 156.878,98.2244 157.5,101.5C 156.167,101.167 154.833,100.833 153.5,100.5C 152.833,99.5 152.167,98.5 151.5,97.5 Z"/></g>
<g><path style="opacity:0.455" fill="#c4d7f8" d="M 191.5,98.5 C 193.027,98.427 194.027,99.0937 194.5,100.5C 192.973,100.573 191.973,99.9063 191.5,98.5 Z"/></g>
<g><path style="opacity:1" fill="#5e8de4" d="M 216.5,77.5 C 216.833,77.5 217.167,77.5 217.5,77.5C 220.966,86.7362 218.3,93.4029 209.5,97.5C 209.5,98.5 209.5,99.5 209.5,100.5C 211.199,100.66 212.866,100.494 214.5,100C 215.308,98.2942 216.641,97.4609 218.5,97.5C 218.5,96.5 218.5,95.5 218.5,94.5C 219.5,94.5 220.5,94.5 221.5,94.5C 221.5,94.8333 221.5,95.1667 221.5,95.5C 220.094,95.9731 219.427,96.9731 219.5,98.5C 217.596,98.7376 216.262,99.7376 215.5,101.5C 210.881,102.314 206.214,102.647 201.5,102.5C 200.167,102.5 198.833,102.5 197.5,102.5C 197.027,101.094 196.027,100.427 194.5,100.5C 194.027,99.0937 193.027,98.427 191.5,98.5C 190.242,96.3131 189.242,93.9798 188.5,91.5C 189.959,91.4326 191.292,91.7659 192.5,92.5C 192.5,94.1667 192.5,95.8333 192.5,97.5C 195.504,98.0886 198.337,99.0886 201,100.5C 201.833,100.167 202.667,99.8333 203.5,99.5C 201.921,98.3331 200.588,96.9998 199.5,95.5C 213.341,97.3246 219.007,91.3246 216.5,77.5 Z"/></g>
<g><path style="opacity:1" fill="#4c8af8" d="M 192.5,92.5 C 194.98,93.242 197.313,94.242 199.5,95.5C 200.588,96.9998 201.921,98.3331 203.5,99.5C 202.667,99.8333 201.833,100.167 201,100.5C 198.337,99.0886 195.504,98.0886 192.5,97.5C 192.5,95.8333 192.5,94.1667 192.5,92.5 Z"/></g>
<g><path style="opacity:0.043" fill="#d7e0f9" d="M 219.5,98.5 C 218.738,100.262 217.404,101.262 215.5,101.5C 216.262,99.7376 217.596,98.7376 219.5,98.5 Z"/></g>
<g><path style="opacity:1" fill="#5389e8" d="M 58.5,89.5 C 61.1667,91.8333 63.8333,94.1667 66.5,96.5C 66.1667,96.5 65.8333,96.5 65.5,96.5C 63.5648,95.8505 61.5648,95.5172 59.5,95.5C 59.7841,98.8573 58.4507,101.191 55.5,102.5C 44.6536,102.828 33.9869,102.494 23.5,101.5C 34.6794,101.828 45.6794,101.495 56.5,100.5C 56.5,100.167 56.5,99.8333 56.5,99.5C 57.1667,96.1667 57.8333,92.8333 58.5,89.5 Z"/></g>
<g><path style="opacity:1" fill="#588be6" d="M 129.5,84.5 C 128.566,85.5676 128.232,86.901 128.5,88.5C 127.127,88.3433 125.793,88.51 124.5,89C 125.252,89.6708 125.586,90.5041 125.5,91.5C 124.524,92.8149 123.524,94.1482 122.5,95.5C 129.476,96.3311 136.476,96.8311 143.5,97C 144.381,97.7083 145.047,98.5416 145.5,99.5C 145.5,100.5 145.5,101.5 145.5,102.5C 138.5,102.5 131.5,102.5 124.5,102.5C 131.012,101.833 137.679,101.167 144.5,100.5C 144.333,100.167 144.167,99.8333 144,99.5C 136.587,98.5192 129.087,98.1858 121.5,98.5C 121.5,97.5 121.5,96.5 121.5,95.5C 118.002,95.4347 117.502,94.1014 120,91.5C 123.676,89.2755 126.509,86.2755 128.5,82.5C 129.298,82.9569 129.631,83.6236 129.5,84.5 Z"/></g>
<g><path style="opacity:0.22" fill="#c7dcfb" d="M 153.5,100.5 C 154.833,100.833 156.167,101.167 157.5,101.5C 157.842,102.338 158.508,102.672 159.5,102.5C 159.5,102.833 159.5,103.167 159.5,103.5C 156.911,103.539 154.911,102.539 153.5,100.5 Z"/></g>
<g><path style="opacity:0.997" fill="#618dda" d="M 175.5,99.5 C 174.653,100.966 173.32,101.8 171.5,102C 167.514,102.499 163.514,102.666 159.5,102.5C 158.508,102.672 157.842,102.338 157.5,101.5C 163.667,101.899 169.667,101.232 175.5,99.5 Z"/></g>
<g><path style="opacity:0.208" fill="#cbdafc" d="M 194.5,100.5 C 196.027,100.427 197.027,101.094 197.5,102.5C 195.973,102.573 194.973,101.906 194.5,100.5 Z"/></g>
<g><path style="opacity:0.804" fill="#a3bef0" d="M 215.5,101.5 C 214.22,102.931 212.553,103.598 210.5,103.5C 207.287,103.81 204.287,103.477 201.5,102.5C 206.214,102.647 210.881,102.314 215.5,101.5 Z"/></g>
<g><path style="opacity:1" fill="#4a8bfb" d="M 21.5,101.5 C 22.1667,101.5 22.8333,101.5 23.5,101.5C 33.9869,102.494 44.6536,102.828 55.5,102.5C 54.9935,103.859 53.9935,104.859 52.5,105.5C 52.7093,106.086 53.0426,106.586 53.5,107C 51.0645,107.853 48.7312,108.853 46.5,110C 47.5,111 48.5,112 49.5,113C 46.6016,116.206 47.435,118.04 52,118.5C 53.1475,117.542 54.1475,117.875 55,119.5C 57.4094,117.251 59.2428,117.918 60.5,121.5C 64.3977,119.314 64.3977,117.148 60.5,115C 62.8333,113.167 65.1667,111.333 67.5,109.5C 68.3081,109.808 68.9747,110.308 69.5,111C 68.1667,112 68.1667,113 69.5,114C 66.6162,115.037 65.9496,116.871 67.5,119.5C 68.5237,118.147 69.857,117.48 71.5,117.5C 70.8902,118.391 70.5569,119.391 70.5,120.5C 69.609,121.11 68.609,121.443 67.5,121.5C 63.4115,122.709 59.4115,124.209 55.5,126C 51.3382,126.541 47.1716,127.041 43,127.5C 36.8141,126.219 30.6474,124.886 24.5,123.5C 23.8333,123.5 23.1667,123.5 22.5,123.5C 21.588,121.405 20.4213,119.405 19,117.5C 17.9887,116.663 16.8221,116.33 15.5,116.5C 15.6168,114.516 14.9501,112.85 13.5,111.5C 14.5922,108.906 16.2589,106.739 18.5,105C 17.944,104.617 17.6107,104.117 17.5,103.5C 18.5417,102.209 19.7083,102.209 21,103.5C 21.4643,102.906 21.631,102.239 21.5,101.5 Z"/></g>
<g><path style="opacity:0.275" fill="#d4e0fc" d="M 197.5,102.5 C 198.833,102.5 200.167,102.5 201.5,102.5C 204.287,103.477 207.287,103.81 210.5,103.5C 209.036,104.16 207.369,104.493 205.5,104.5C 202.514,104.618 199.848,103.952 197.5,102.5 Z"/></g>
<g><path style="opacity:1" fill="#518dee" d="M 17.5,103.5 C 17.6107,104.117 17.944,104.617 18.5,105C 16.2589,106.739 14.5922,108.906 13.5,111.5C 14.9501,112.85 15.6168,114.516 15.5,116.5C 14.3951,115.4 13.0618,114.733 11.5,114.5C 10.1944,112.184 8.86111,109.85 7.5,107.5C 9.26241,107.357 10.9291,107.691 12.5,108.5C 13.4519,106.955 13.7852,105.288 13.5,103.5C 14.8333,103.5 16.1667,103.5 17.5,103.5 Z"/></g>
<g><path style="opacity:0.769" fill="#6f95db" d="M 83.5,105.5 C 83.2503,107.674 82.2503,109.341 80.5,110.5C 80.2729,108.067 81.2729,106.401 83.5,105.5 Z"/></g>
<g><path style="opacity:0.298" fill="#c6dafa" d="M 0.5,92.5 C 0.833333,92.5 1.16667,92.5 1.5,92.5C 2.52456,96.0793 3.69123,99.7459 5,103.5C 5.37675,104.942 6.21009,105.942 7.5,106.5C 7.5,106.833 7.5,107.167 7.5,107.5C 8.86111,109.85 10.1944,112.184 11.5,114.5C 5.20697,108.581 1.54031,101.247 0.5,92.5 Z"/></g>
<g><path style="opacity:1" fill="#4a8afc" d="M 65.5,96.5 C 65.822,98.7224 65.1554,100.556 63.5,102C 63.8333,102.333 64.1667,102.667 64.5,103C 61.9899,103.376 59.6565,104.21 57.5,105.5C 58.179,107.588 58.5123,109.588 58.5,111.5C 60.4812,110.895 60.8146,109.895 59.5,108.5C 62.309,107.236 64.4757,105.236 66,102.5C 67.5123,104.957 68.8456,104.957 70,102.5C 72.5463,105.186 75.713,106.186 79.5,105.5C 79.5,106.833 79.5,108.167 79.5,109.5C 77.8333,109.5 76.1667,109.5 74.5,109.5C 74.5,111.5 74.5,113.5 74.5,115.5C 73.5,116.167 72.5,116.833 71.5,117.5C 69.857,117.48 68.5237,118.147 67.5,119.5C 65.9496,116.871 66.6162,115.037 69.5,114C 68.1667,113 68.1667,112 69.5,111C 68.9747,110.308 68.3081,109.808 67.5,109.5C 65.1667,111.333 62.8333,113.167 60.5,115C 64.3977,117.148 64.3977,119.314 60.5,121.5C 59.2428,117.918 57.4094,117.251 55,119.5C 54.1475,117.875 53.1475,117.542 52,118.5C 47.435,118.04 46.6016,116.206 49.5,113C 48.5,112 47.5,111 46.5,110C 48.7312,108.853 51.0645,107.853 53.5,107C 53.0426,106.586 52.7093,106.086 52.5,105.5C 53.9935,104.859 54.9935,103.859 55.5,102.5C 58.4507,101.191 59.7841,98.8573 59.5,95.5C 61.5648,95.5172 63.5648,95.8505 65.5,96.5 Z"/></g>
<g><path style="opacity:0.922" fill="#6993d9" d="M 78.5,113.5 C 76.2486,116.295 73.5819,118.628 70.5,120.5C 70.5569,119.391 70.8902,118.391 71.5,117.5C 72.5,116.833 73.5,116.167 74.5,115.5C 75.4674,114.194 76.8007,113.527 78.5,113.5 Z"/></g>
<g><path style="opacity:0.216" fill="#c0d3f6" d="M 11.5,114.5 C 13.0618,114.733 14.3951,115.4 15.5,116.5C 15.5,117.167 15.5,117.833 15.5,118.5C 13.5,117.833 12.1667,116.5 11.5,114.5 Z"/></g>
<g><path style="opacity:0.29" fill="#cbe2fa" d="M 86.5,103.5 C 82.2245,113.442 75.2245,120.775 65.5,125.5C 65.8333,124.833 66.1667,124.167 66.5,123.5C 66.8333,122.833 67.1667,122.167 67.5,121.5C 68.609,121.443 69.609,121.11 70.5,120.5C 73.5819,118.628 76.2486,116.295 78.5,113.5C 79.1667,112.5 79.8333,111.5 80.5,110.5C 82.2503,109.341 83.2503,107.674 83.5,105.5C 84.2223,104.449 85.2223,103.782 86.5,103.5 Z"/></g>
<g><path style="opacity:0.431" fill="#c9e3f9" d="M 15.5,118.5 C 17.7488,119.08 19.4154,120.413 20.5,122.5C 18.2512,121.92 16.5846,120.587 15.5,118.5 Z"/></g>
<g><path style="opacity:0.98" fill="#779ede" d="M 15.5,116.5 C 16.8221,116.33 17.9887,116.663 19,117.5C 20.4213,119.405 21.588,121.405 22.5,123.5C 21.5084,123.672 20.8417,123.338 20.5,122.5C 19.4154,120.413 17.7488,119.08 15.5,118.5C 15.5,117.833 15.5,117.167 15.5,116.5 Z"/></g>
<g><path style="opacity:0.133" fill="#d1e7ff" d="M 22.5,123.5 C 23.1667,123.5 23.8333,123.5 24.5,123.5C 26.636,124.653 28.636,125.986 30.5,127.5C 27.279,127.104 24.6123,125.771 22.5,123.5 Z"/></g>
<g><path style="opacity:0.353" fill="#abcaf5" d="M 66.5,123.5 C 66.1667,124.167 65.8333,124.833 65.5,125.5C 64.609,126.11 63.609,126.443 62.5,126.5C 60.5,126.833 58.5,127.167 56.5,127.5C 59.6248,125.874 62.9581,124.54 66.5,123.5 Z"/></g>
<g><path style="opacity:0.965" fill="#6994df" d="M 67.5,121.5 C 67.1667,122.167 66.8333,122.833 66.5,123.5C 62.9581,124.54 59.6248,125.874 56.5,127.5C 54.6208,128.341 52.6208,128.675 50.5,128.5C 44.1308,128.653 37.7974,128.32 31.5,127.5C 31.1667,127.5 30.8333,127.5 30.5,127.5C 28.636,125.986 26.636,124.653 24.5,123.5C 30.6474,124.886 36.8141,126.219 43,127.5C 47.1716,127.041 51.3382,126.541 55.5,126C 59.4115,124.209 63.4115,122.709 67.5,121.5 Z"/></g>
<g><path style="opacity:0.129" fill="#c7dffc" d="M 31.5,127.5 C 37.7974,128.32 44.1308,128.653 50.5,128.5C 47.0381,129.482 43.3714,129.815 39.5,129.5C 36.5049,129.706 33.8383,129.04 31.5,127.5 Z"/></g>
<g><path style="opacity:0.073" fill="#e4f4fe" d="M 62.5,126.5 C 55.1472,130.194 47.4805,131.194 39.5,129.5C 43.3714,129.815 47.0381,129.482 50.5,128.5C 52.6208,128.675 54.6208,128.341 56.5,127.5C 58.5,127.167 60.5,126.833 62.5,126.5 Z"/></g>
</svg>
